<?xml version="1.0" encoding="UTF-8" standalone="no"?>
<!DOCTYPE svg PUBLIC "-//W3C//DTD SVG 1.1//EN"
 "http://www.w3.org/Graphics/SVG/1.1/DTD/svg11.dtd">
<!-- Generated by graphviz version 2.40.1 (20161225.0304)
 -->
<!-- Title: G Pages: 1 -->
<svg width="138pt" height="219pt"
 viewBox="0.00 0.00 138.00 219.00" xmlns="http://www.w3.org/2000/svg" xmlns:xlink="http://www.w3.org/1999/xlink">
<g id="graph0" class="graph" transform="scale(1 1) rotate(0) translate(4 215)">
<title>G</title>
<polygon fill="#ffffff" stroke="transparent" points="-4,4 -4,-215 134,-215 134,4 -4,4"/>
<g id="clust1" class="cluster">
<title>cluster_Global</title>
<path fill="none" stroke="#c0c0c0" d="M12,-8C12,-8 118,-8 118,-8 124,-8 130,-14 130,-20 130,-20 130,-191 130,-191 130,-197 124,-203 118,-203 118,-203 12,-203 12,-203 6,-203 0,-197 0,-191 0,-191 0,-20 0,-20 0,-14 6,-8 12,-8"/>
<text text-anchor="middle" x="65" y="-190.2" font-family="Times,serif" font-size="11.00" fill="#c0c0c0">Global</text>
</g>
<g id="clust2" class="cluster">
<title>cluster_\Grav</title>
<path fill="none" stroke="#c0c0c0" d="M20,-16C20,-16 110,-16 110,-16 116,-16 122,-22 122,-28 122,-28 122,-164 122,-164 122,-170 116,-176 110,-176 110,-176 20,-176 20,-176 14,-176 8,-170 8,-164 8,-164 8,-28 8,-28 8,-22 14,-16 20,-16"/>
<text text-anchor="middle" x="65" y="-163.2" font-family="Times,serif" font-size="11.00" fill="#c0c0c0">Grav</text>
</g>
<g id="clust3" class="cluster">
<title>cluster_\Grav\WordPressUtilities</title>
<path fill="none" stroke="#c0c0c0" d="M28,-24C28,-24 102,-24 102,-24 108,-24 114,-30 114,-36 114,-36 114,-137 114,-137 114,-143 108,-149 102,-149 102,-149 28,-149 28,-149 22,-149 16,-143 16,-137 16,-137 16,-36 16,-36 16,-30 22,-24 28,-24"/>
<text text-anchor="middle" x="65" y="-136.2" font-family="Times,serif" font-size="11.00" fill="#c0c0c0">WordPressUtilities</text>
</g>
<!-- \\Grav\\WordPressUtilities\\Posts -->
<g id="node1" class="node">
<title>\\Grav\\WordPressUtilities\\Posts</title>
<polygon fill="none" stroke="#000000" points="92,-122 38,-122 38,-86 92,-86 92,-122"/>
<text text-anchor="middle" x="65" y="-100.7" font-family="Courier,monospace" font-size="11.00" fill="#000000">Posts</text>
</g>
<!-- \\Grav\\WordPressUtilities\\Theme -->
<g id="node2" class="node">
<title>\\Grav\\WordPressUtilities\\Theme</title>
<polygon fill="none" stroke="#000000" points="92,-68 38,-68 38,-32 92,-32 92,-68"/>
<text text-anchor="middle" x="65" y="-46.7" font-family="Courier,monospace" font-size="11.00" fill="#000000">Theme</text>
</g>
</g>
</svg>
